<svg width="16" height="19" viewBox="0 0 16 19" fill="none" xmlns="http://www.w3.org/2000/svg">
<path d="M15.2166 8.65577C15.2166 14.0346 9.70745 17.3484 8.56256 17.9795C8.49913 18.0145 8.42788 18.0329 8.35545 18.0329C8.28302 18.0329 8.21176 18.0145 8.14834 17.9795C7.00259 17.3484 1.49512 14.0346 1.49512 8.65577C1.49512 4.36779 4.0679 1.36621 8.35588 1.36621C12.6439 1.36621 15.2166 4.36779 15.2166 8.65577Z" stroke="white" stroke-width="1.4" stroke-linecap="round" stroke-linejoin="round"/>
<path d="M4.92554 8.22726C4.92554 9.13705 5.28695 10.0096 5.93027 10.6529C6.57359 11.2962 7.44612 11.6576 8.35592 11.6576C9.26571 11.6576 10.1382 11.2962 10.7816 10.6529C11.4249 10.0096 11.7863 9.13705 11.7863 8.22726C11.7863 7.31746 11.4249 6.44493 10.7816 5.80161C10.1382 5.15829 9.26571 4.79688 8.35592 4.79688C7.44612 4.79688 6.57359 5.15829 5.93027 5.80161C5.28695 6.44493 4.92554 7.31746 4.92554 8.22726V8.22726Z" stroke="white" stroke-width="1.4" stroke-linecap="round" stroke-linejoin="round"/>
</svg>
